<mxfile host="65bd71144e">
    <diagram name="PÃ¡gina-1" id="0O9jW7Vgj1Rz3YdZnh-9">
        <mxGraphModel dx="2619" dy="2503" grid="1" gridSize="10" guides="1" tooltips="1" connect="1" arrows="1" fold="1" page="1" pageScale="1" pageWidth="827" pageHeight="1169" math="0" shadow="0">
            <root>
                <mxCell id="0"/>
                <mxCell id="1" parent="0"/>
                <mxCell id="gTndqexRxWy94c6zoqIW-1" value="User" style="shape=umlActor;verticalLabelPosition=bottom;verticalAlign=top;html=1;outlineConnect=0;" parent="1" vertex="1">
                    <mxGeometry x="-310.08" y="-570" width="30" height="60" as="geometry"/>
                </mxCell>
                <mxCell id="gTndqexRxWy94c6zoqIW-11" style="edgeStyle=orthogonalEdgeStyle;rounded=0;orthogonalLoop=1;jettySize=auto;html=1;entryX=0;entryY=0.5;entryDx=0;entryDy=0;exitX=0.5;exitY=0.5;exitDx=0;exitDy=0;exitPerimeter=0;endArrow=none;endFill=0;" parent="1" source="gTndqexRxWy94c6zoqIW-1" target="gTndqexRxWy94c6zoqIW-10" edge="1">
                    <mxGeometry relative="1" as="geometry"/>
                </mxCell>
                <mxCell id="gTndqexRxWy94c6zoqIW-19" style="rounded=0;orthogonalLoop=1;jettySize=auto;html=1;entryX=-0.011;entryY=0.671;entryDx=0;entryDy=0;entryPerimeter=0;exitX=0.5;exitY=0.5;exitDx=0;exitDy=0;exitPerimeter=0;endArrow=none;endFill=0;" parent="1" source="gTndqexRxWy94c6zoqIW-2" target="gTndqexRxWy94c6zoqIW-21" edge="1">
                    <mxGeometry relative="1" as="geometry">
                        <mxPoint x="-70" y="-310" as="targetPoint"/>
                    </mxGeometry>
                </mxCell>
                <mxCell id="gTndqexRxWy94c6zoqIW-20" style="rounded=0;orthogonalLoop=1;jettySize=auto;html=1;entryX=0;entryY=0.5;entryDx=0;entryDy=0;exitX=0.5;exitY=0.5;exitDx=0;exitDy=0;exitPerimeter=0;endArrow=none;endFill=0;" parent="1" source="gTndqexRxWy94c6zoqIW-2" target="gTndqexRxWy94c6zoqIW-25" edge="1">
                    <mxGeometry relative="1" as="geometry">
                        <mxPoint x="-50" y="-150" as="targetPoint"/>
                    </mxGeometry>
                </mxCell>
                <mxCell id="gTndqexRxWy94c6zoqIW-27" style="rounded=0;orthogonalLoop=1;jettySize=auto;html=1;exitX=0.5;exitY=0.5;exitDx=0;exitDy=0;exitPerimeter=0;entryX=0;entryY=0;entryDx=0;entryDy=0;endArrow=none;endFill=0;" parent="1" source="gTndqexRxWy94c6zoqIW-2" target="gTndqexRxWy94c6zoqIW-13" edge="1">
                    <mxGeometry relative="1" as="geometry">
                        <Array as="points"/>
                    </mxGeometry>
                </mxCell>
                <mxCell id="gTndqexRxWy94c6zoqIW-57" style="rounded=0;orthogonalLoop=1;jettySize=auto;html=1;edgeStyle=orthogonalEdgeStyle;endArrow=none;endFill=0;" parent="1" source="gTndqexRxWy94c6zoqIW-2" target="gTndqexRxWy94c6zoqIW-1" edge="1">
                    <mxGeometry relative="1" as="geometry">
                        <mxPoint x="-340.08" y="-540.0000000000002" as="targetPoint"/>
                        <Array as="points">
                            <mxPoint x="-330.08" y="-290"/>
                            <mxPoint x="-330.08" y="-520"/>
                        </Array>
                    </mxGeometry>
                </mxCell>
                <mxCell id="gTndqexRxWy94c6zoqIW-2" value="Aluno" style="shape=umlActor;verticalLabelPosition=bottom;verticalAlign=top;html=1;outlineConnect=0;" parent="1" vertex="1">
                    <mxGeometry x="-310.08" y="-320" width="30" height="60" as="geometry"/>
                </mxCell>
                <mxCell id="gTndqexRxWy94c6zoqIW-12" style="rounded=0;orthogonalLoop=1;jettySize=auto;html=1;entryX=0;entryY=1;entryDx=0;entryDy=0;exitX=0.5;exitY=0.5;exitDx=0;exitDy=0;exitPerimeter=0;endArrow=none;endFill=0;" parent="1" source="gTndqexRxWy94c6zoqIW-3" target="gTndqexRxWy94c6zoqIW-13" edge="1">
                    <mxGeometry relative="1" as="geometry">
                        <mxPoint x="-30" y="-50" as="targetPoint"/>
                        <mxPoint x="-230" y="-50" as="sourcePoint"/>
                    </mxGeometry>
                </mxCell>
                <mxCell id="gTndqexRxWy94c6zoqIW-28" style="rounded=0;orthogonalLoop=1;jettySize=auto;html=1;entryX=0;entryY=0.5;entryDx=0;entryDy=0;exitX=0.5;exitY=0.5;exitDx=0;exitDy=0;exitPerimeter=0;endArrow=none;endFill=0;" parent="1" source="gTndqexRxWy94c6zoqIW-3" target="gTndqexRxWy94c6zoqIW-29" edge="1">
                    <mxGeometry relative="1" as="geometry">
                        <mxPoint x="-80" y="40" as="targetPoint"/>
                    </mxGeometry>
                </mxCell>
                <mxCell id="gTndqexRxWy94c6zoqIW-56" style="edgeStyle=orthogonalEdgeStyle;rounded=0;orthogonalLoop=1;jettySize=auto;html=1;endArrow=none;endFill=0;" parent="1" source="gTndqexRxWy94c6zoqIW-3" edge="1">
                    <mxGeometry relative="1" as="geometry">
                        <mxPoint x="-320.08" y="-540" as="targetPoint"/>
                        <mxPoint x="-320.08" y="-50" as="sourcePoint"/>
                        <Array as="points">
                            <mxPoint x="-380.08" y="-40"/>
                            <mxPoint x="-380.08" y="-540"/>
                            <mxPoint x="-320.08" y="-540"/>
                        </Array>
                    </mxGeometry>
                </mxCell>
                <mxCell id="gTndqexRxWy94c6zoqIW-3" value="Professor" style="shape=umlActor;verticalLabelPosition=bottom;verticalAlign=top;html=1;outlineConnect=0;" parent="1" vertex="1">
                    <mxGeometry x="-310.08" y="-70" width="30" height="60" as="geometry"/>
                </mxCell>
                <mxCell id="gTndqexRxWy94c6zoqIW-14" style="edgeStyle=orthogonalEdgeStyle;rounded=0;orthogonalLoop=1;jettySize=auto;html=1;entryX=0;entryY=0.5;entryDx=0;entryDy=0;exitX=0.5;exitY=0.5;exitDx=0;exitDy=0;exitPerimeter=0;endArrow=none;endFill=0;" parent="1" source="gTndqexRxWy94c6zoqIW-4" target="gTndqexRxWy94c6zoqIW-15" edge="1">
                    <mxGeometry relative="1" as="geometry">
                        <mxPoint x="-30" y="110" as="targetPoint"/>
                    </mxGeometry>
                </mxCell>
                <mxCell id="gTndqexRxWy94c6zoqIW-55" style="edgeStyle=orthogonalEdgeStyle;rounded=0;orthogonalLoop=1;jettySize=auto;html=1;endArrow=none;endFill=0;" parent="1" source="gTndqexRxWy94c6zoqIW-4" target="gTndqexRxWy94c6zoqIW-1" edge="1">
                    <mxGeometry relative="1" as="geometry">
                        <mxPoint x="-320.08" y="-570" as="targetPoint"/>
                        <mxPoint x="-320.08" y="210" as="sourcePoint"/>
                        <Array as="points">
                            <mxPoint x="-420.08" y="210"/>
                            <mxPoint x="-420.08" y="-600"/>
                            <mxPoint x="-320.08" y="-600"/>
                            <mxPoint x="-320.08" y="-560"/>
                        </Array>
                    </mxGeometry>
                </mxCell>
                <mxCell id="gTndqexRxWy94c6zoqIW-4" value="Admin" style="shape=umlActor;verticalLabelPosition=bottom;verticalAlign=top;html=1;outlineConnect=0;" parent="1" vertex="1">
                    <mxGeometry x="-310.08" y="180" width="30" height="60" as="geometry"/>
                </mxCell>
                <mxCell id="gTndqexRxWy94c6zoqIW-34" style="rounded=0;orthogonalLoop=1;jettySize=auto;html=1;entryX=0;entryY=0.5;entryDx=0;entryDy=0;exitX=0.5;exitY=0.5;exitDx=0;exitDy=0;exitPerimeter=0;endArrow=none;endFill=0;" parent="1" source="gTndqexRxWy94c6zoqIW-5" target="gTndqexRxWy94c6zoqIW-35" edge="1">
                    <mxGeometry relative="1" as="geometry">
                        <mxPoint x="-90" y="340" as="targetPoint"/>
                    </mxGeometry>
                </mxCell>
                <mxCell id="gTndqexRxWy94c6zoqIW-39" style="rounded=0;orthogonalLoop=1;jettySize=auto;html=1;entryX=0;entryY=0.5;entryDx=0;entryDy=0;exitX=0.5;exitY=0.5;exitDx=0;exitDy=0;exitPerimeter=0;endArrow=none;endFill=0;" parent="1" source="gTndqexRxWy94c6zoqIW-5" target="gTndqexRxWy94c6zoqIW-38" edge="1">
                    <mxGeometry relative="1" as="geometry"/>
                </mxCell>
                <mxCell id="gTndqexRxWy94c6zoqIW-52" style="edgeStyle=orthogonalEdgeStyle;rounded=0;orthogonalLoop=1;jettySize=auto;html=1;endArrow=none;endFill=0;" parent="1" source="gTndqexRxWy94c6zoqIW-5" edge="1">
                    <mxGeometry relative="1" as="geometry">
                        <mxPoint x="-295.08" y="-580" as="targetPoint"/>
                        <mxPoint x="-395.08" y="460" as="sourcePoint"/>
                        <Array as="points">
                            <mxPoint x="-460.08" y="460"/>
                            <mxPoint x="-460.08" y="-650"/>
                            <mxPoint x="-295.08" y="-650"/>
                        </Array>
                    </mxGeometry>
                </mxCell>
                <mxCell id="gTndqexRxWy94c6zoqIW-5" value="Empresa" style="shape=umlActor;verticalLabelPosition=bottom;verticalAlign=top;html=1;outlineConnect=0;" parent="1" vertex="1">
                    <mxGeometry x="-310.08" y="430" width="30" height="60" as="geometry"/>
                </mxCell>
                <mxCell id="gTndqexRxWy94c6zoqIW-10" value="Fazer login" style="ellipse;whiteSpace=wrap;html=1;" parent="1" vertex="1">
                    <mxGeometry x="-140" y="-580" width="120" height="80" as="geometry"/>
                </mxCell>
                <mxCell id="gTndqexRxWy94c6zoqIW-13" value="Consultar extrato" style="ellipse;whiteSpace=wrap;html=1;" parent="1" vertex="1">
                    <mxGeometry x="50" y="-200" width="120" height="80" as="geometry"/>
                </mxCell>
                <mxCell id="gTndqexRxWy94c6zoqIW-15" value="Gerenciar professores" style="ellipse;whiteSpace=wrap;html=1;" parent="1" vertex="1">
                    <mxGeometry x="-140" y="170" width="120" height="80" as="geometry"/>
                </mxCell>
                <mxCell id="gTndqexRxWy94c6zoqIW-21" value="Trocar moedas" style="ellipse;whiteSpace=wrap;html=1;" parent="1" vertex="1">
                    <mxGeometry x="-140" y="-390" width="120" height="80" as="geometry"/>
                </mxCell>
                <mxCell id="gTndqexRxWy94c6zoqIW-24" style="edgeStyle=orthogonalEdgeStyle;rounded=0;orthogonalLoop=1;jettySize=auto;html=1;exitX=0;exitY=0.5;exitDx=0;exitDy=0;entryX=1;entryY=0.5;entryDx=0;entryDy=0;dashed=1;endArrow=none;endFill=0;" parent="1" source="gTndqexRxWy94c6zoqIW-23" target="gTndqexRxWy94c6zoqIW-21" edge="1">
                    <mxGeometry relative="1" as="geometry"/>
                </mxCell>
                <mxCell id="gTndqexRxWy94c6zoqIW-49" value="&amp;lt;&amp;lt;extends&amp;gt;&amp;gt;" style="edgeLabel;html=1;align=center;verticalAlign=middle;resizable=0;points=[];" parent="gTndqexRxWy94c6zoqIW-24" vertex="1" connectable="0">
                    <mxGeometry x="-0.1541" y="-1" relative="1" as="geometry">
                        <mxPoint as="offset"/>
                    </mxGeometry>
                </mxCell>
                <mxCell id="gTndqexRxWy94c6zoqIW-23" value="Selecionar vantagem" style="ellipse;whiteSpace=wrap;html=1;" parent="1" vertex="1">
                    <mxGeometry x="220" y="-390" width="120" height="80" as="geometry"/>
                </mxCell>
                <mxCell id="gTndqexRxWy94c6zoqIW-25" value="Visualizar transaÃ§Ãµes" style="ellipse;whiteSpace=wrap;html=1;" parent="1" vertex="1">
                    <mxGeometry x="-140" y="-200" width="120" height="80" as="geometry"/>
                </mxCell>
                <mxCell id="gTndqexRxWy94c6zoqIW-26" style="rounded=0;orthogonalLoop=1;jettySize=auto;html=1;entryX=-0.018;entryY=0.608;entryDx=0;entryDy=0;entryPerimeter=0;exitX=0.5;exitY=0.5;exitDx=0;exitDy=0;exitPerimeter=0;endArrow=none;endFill=0;" parent="1" source="gTndqexRxWy94c6zoqIW-3" target="gTndqexRxWy94c6zoqIW-25" edge="1">
                    <mxGeometry relative="1" as="geometry"/>
                </mxCell>
                <mxCell id="gTndqexRxWy94c6zoqIW-29" value="Enviar moedas" style="ellipse;whiteSpace=wrap;html=1;" parent="1" vertex="1">
                    <mxGeometry x="50" width="120" height="80" as="geometry"/>
                </mxCell>
                <mxCell id="gTndqexRxWy94c6zoqIW-32" style="rounded=0;orthogonalLoop=1;jettySize=auto;html=1;entryX=1;entryY=0;entryDx=0;entryDy=0;endArrow=none;endFill=0;" parent="1" source="gTndqexRxWy94c6zoqIW-30" target="gTndqexRxWy94c6zoqIW-29" edge="1">
                    <mxGeometry relative="1" as="geometry"/>
                </mxCell>
                <mxCell id="gTndqexRxWy94c6zoqIW-30" value="Selecionar aluno" style="ellipse;whiteSpace=wrap;html=1;" parent="1" vertex="1">
                    <mxGeometry x="220" y="-70" width="120" height="80" as="geometry"/>
                </mxCell>
                <mxCell id="gTndqexRxWy94c6zoqIW-35" value="Cadastrar no sistema" style="ellipse;whiteSpace=wrap;html=1;" parent="1" vertex="1">
                    <mxGeometry x="-140" y="320" width="120" height="80" as="geometry"/>
                </mxCell>
                <mxCell id="gTndqexRxWy94c6zoqIW-38" value="Gerenciar vantagens" style="ellipse;whiteSpace=wrap;html=1;" parent="1" vertex="1">
                    <mxGeometry x="-140" y="520" width="120" height="80" as="geometry"/>
                </mxCell>
                <mxCell id="3" value="" style="rounded=0;whiteSpace=wrap;html=1;fillColor=none;" vertex="1" parent="1">
                    <mxGeometry x="-245" y="-650" width="665" height="1270" as="geometry"/>
                </mxCell>
            </root>
        </mxGraphModel>
    </diagram>
</mxfile>